<svg xmlns="http://www.w3.org/2000/svg" viewBox="0 0 52 52" enable-background="new 0 0 52 52">
  <path d="M39.626 34.664l-11.512-20.464-.013-.014c-.578-.43-1.336-.644-2.095-.643-.757-.001-1.516.214-2.094.643l-.013.014-11.512 20.464c-1.155.859-1.155 2.251 0 3.11.643.478 1.502.662 2.342.608l22.762.075c.834 0 1.581-.262 2.118-.675l.016-.008c.261-.194.444-.421.587-.657l.003-.003c.488-.809.303-1.786-.59-2.45zm-11.786-.745c-.003.867-.823 1.572-1.832 1.575-1.009.002-1.825-.699-1.822-1.566l.024.019c.003-.867.823-1.572 1.832-1.575 1.009-.002 1.825.699 1.823 1.567l-.025-.019zm0-4.974c-.003.867-.823 1.572-1.832 1.575-1.009.002-1.825-.699-1.822-1.566l.024-7.939c.003-.867.823-1.572 1.832-1.575 1.009-.002 1.825.699 1.823 1.567l-.025 7.939z"/>
</svg>
