<svg xmlns="http://www.w3.org/2000/svg" viewBox="0 0 52 52" enable-background="new 0 0 52 52">
  <path d="M24.226 35.773l-2.872-2.832c-.097-.114-.235-.19-.397-.19-.29 0-.525.234-.525.522v2.877l-.001.004c0 .144.059.275.154.37.095.095.227.153.372.153h2.896c.29 0 .525-.234.525-.522l-.001-.002c.002-.138-.047-.275-.152-.379zm3.564-12.304c.332.331.851.339 1.208.051l.013.013.06-.06.004-.003.003-.003 5.362-5.335.004-.001.002-.004.012-.012-.002-.002c.339-.354.338-.913-.012-1.26-.349-.348-.911-.349-1.268-.012l-.001-.002-.008.008-.008.005-.005.008-5.356 5.327-.008.005-.005.008-.057.057.011.012c-.29.355-.281.872.051 1.202zm12.305-6.346c-.991-.986-2.586-.995-3.595-.037l-.001-.001-.005.005-.041.033-.033.04-14.585 14.509.024.024c-.131.095-.222.241-.222.415l.001.003c-.002.137.048.274.152.379l2.872 2.831c.097.114.235.191.397.191.19 0 .349-.106.441-.256l14.574-14.498.02-.016.016-.02.024-.022-.002-.003c.963-1.003.953-2.59-.038-3.576zm-14.824 5.213c0-1.1-.896-1.991-2.001-1.991h-3.049v-3.033c0-1.099-.896-1.991-2.001-1.991s-2.001.891-2.001 1.991v3.033h-3.065c-1.105 0-2.001.891-2.001 1.991 0 1.099.896 1.99 2.001 1.99h3.065v3.049c0 1.099.896 1.991 2.001 1.991s2.001-.891 2.001-1.991v-3.049h3.049c1.105 0 2.001-.89 2.001-1.99z"/>
</svg>
