<svg xmlns="http://www.w3.org/2000/svg" viewBox="0 0 52 52" enable-background="new 0 0 52 52">
  <path d="M37.741 40.343h-23.482c-1.816 0-3.288-1.464-3.288-3.271v-1.356h30.058v1.356c0 1.807-1.472 3.271-3.288 3.271zm-26.77-9.37c0-1.806 1.472-3.271 3.288-3.271h9.019v-4.307c.874.16 1.786.254 2.731.254.942 0 1.85-.093 2.722-.252v4.305h9.01c1.816 0 3.288 1.465 3.288 3.271v2.969h-30.058v-2.969zm15.043-9.543c-3.801 0-6.882-2.188-6.882-4.887 0-2.698 3.082-4.887 6.882-4.887 3.801 0 6.882 2.188 6.882 4.887 0 2.699-3.081 4.887-6.882 4.887z"/>
</svg>
