<svg xmlns="http://www.w3.org/2000/svg" viewBox="0 0 52 52" enable-background="new 0 0 52 52">
  <path d="M35.315 18.662c-1.99-2.008-5.266-4.488-6.133-3.601-.779.796 2.191 3.056 4.114 5.119l-.002.001c3.382 3.698 5.989 8.504 1.747 11.655-1.931 1.434-6.667-1.025-10.239-4.678l.033-.029c-2.022-1.984-5.426-4.505-6.196-3.755-.854.831 2.233 3.501 4.157 5.565 3.368 3.658 5.454 8.739 2.916 10.537-3.369 2.385-8.085.407-11.656-3.246l2.808-2.808c1.99 2.008 4.881 3.828 5.612 3.115.583-.568-1.272-3.104-3.195-5.167l.003-.002c-3.353-3.7-5.857-8.148-3.165-10.369 2.925-2.413 8.382-.111 11.953 3.542l-.029.026c2.008 1.961 4.254 3.985 4.99 3.393.784-.63-1.479-3.286-3.402-5.349l.001-.001c-3.365-3.676-6.03-7.697-2.839-9.926 4.146-2.896 7.58-.099 11.152 3.554l-2.629 2.423z"/>
</svg>
