<svg xmlns="http://www.w3.org/2000/svg" viewBox="0 0 52 52" enable-background="new 0 0 52 52">
  <path d="M39.88 17.47l.01.009-.048.047-.011.016-.016.01-4.306 4.283c-1.153-.476-2.415-.745-3.741-.745-5.393 0-9.764 4.348-9.764 9.713 0 1.32.27 2.575.749 3.722l-4.308 4.285-.01-.009c-.139.194-.334.341-.592.341-.236 0-.439-.112-.58-.279l-4.2-4.141c-.153-.153-.226-.353-.223-.553l-.001-.005c0-.257.148-.45.343-.588l-.053-.054 21.357-21.245.021-.032.033-.021.034-.034.007.007c1.475-1.399 3.802-1.393 5.251.049 1.449 1.441 1.455 3.756.049 5.223zm-8.293-3.775l-.017.017-.004.005-.006.004-7.842 7.801-.004.005-.006.004-.088.088-.018-.018c-.522.422-1.281.409-1.767-.074s-.498-1.238-.074-1.758l-.017-.017.084-.083.008-.011.011-.008 7.832-7.792.008-.011.012-.007.012-.013.003.003c.52-.493 1.342-.491 1.853.017.511.509.513 1.326.017 1.844l.004.003zm-14.741 26.378l.001.005c0 .422-.344.764-.768.764h-4.23l-.006.001c-.212 0-.405-.086-.544-.224-.14-.139-.226-.33-.226-.541l.001-.006v-4.207c0-.422.344-.765.768-.765.236 0 .44.113.58.279l4.2 4.141c.153.152.226.353.223.553zm14.885-17.235c4.402 0 7.97 3.55 7.97 7.929 0 4.378-3.568 7.928-7.97 7.928s-7.97-3.55-7.97-7.928c0-4.379 3.569-7.929 7.97-7.929zm.049 13.717c3.193 0 5.781-2.575 5.781-5.751 0-1.129-.34-2.176-.905-3.064l-7.957 7.915c.894.563 1.945.901 3.081.901zm-4.599-2.3l8.067-8.025c-.968-.728-2.161-1.176-3.468-1.176-3.193 0-5.781 2.575-5.781 5.75 0 1.301.45 2.487 1.182 3.451z"/>
</svg>
