<svg xmlns="http://www.w3.org/2000/svg" viewBox="0 0 52 52" enable-background="new 0 0 52 52">
  <path d="M36.903 19.8c1.506-.247 2.833-.498 3.978-.755l-.821-2.787c-.784.297-1.641.657-2.569 1.078-.681.318-1.125.518-1.331.6.279-2.001.418-3.376.418-4.125h-2.755c0 1.057.124 2.423.371 4.095-1.063-.656-2.27-1.257-3.622-1.802l-.913 2.71c.278.103.856.262 1.733.477 1.217.298 1.955.467 2.213.509l-.604.585c-.805.76-1.579 1.555-2.322 2.386l2.337 1.802c.815-1.252 1.537-2.433 2.167-3.542l2.089 3.433 2.368-1.555c-.217-.267-.511-.611-.882-1.032l-1.857-2.078zm-13.279 8.189c.834-.375 1.494-.938 1.981-1.689.487-.75.731-1.576.731-2.475 0-.829-.197-1.578-.592-2.245-.395-.668-.888-1.202-1.481-1.604-.592-.402-1.264-.666-2.014-.792-.75-.127-1.889-.19-3.416-.19h-7.714v19.196h6.569c2.483-.017 4.05-.061 4.699-.131 1.035-.114 1.906-.417 2.613-.91.706-.493 1.264-1.153 1.672-1.977.408-.825.612-1.674.612-2.547 0-1.109-.316-2.073-.948-2.894-.632-.821-1.536-1.402-2.712-1.742zm-8.609-5.801h2.238c1.834 0 2.944.022 3.33.066.649.079 1.139.303 1.468.675.329.371.494.853.494 1.446 0 .62-.191 1.119-.573 1.499-.382.38-.906.609-1.573.687-.369.044-1.312.066-2.83.066h-2.554v-4.44zm7.694 11.884c-.364.405-.836.661-1.415.766-.378.079-1.268.118-2.672.118h-3.607v-5.133h3.146c1.773 0 2.924.092 3.455.275.531.184.937.476 1.218.878.281.401.421.891.421 1.466 0 .681-.182 1.225-.547 1.631z"/>
</svg>
