<svg xmlns="http://www.w3.org/2000/svg" viewBox="0 0 52 52" enable-background="new 0 0 52 52">
  <path d="M19.148 29.803c0-.555.047-1.095.117-1.627h-3.8v-13.344h13.415v4.569c1.027.125 1.997.469 2.889.975v-9.152h-19.956v19.817h7.401c-.041-.407-.067-.819-.067-1.238zm20.291-1.668l-2.508-4.482c-.063-.113-.163-.187-.274-.234-.488-.67-1.394-.907-2.139-.495-.804.445-1.092 1.454-.645 2.253l.208.242.091.162c-.273-.055-.569-.02-.868.071l-1.227-2.193-.044-.05-.029-.091c-.447-.799-1.461-1.086-2.265-.641-.803.445-1.092 1.453-.645 2.253l.041.047.012.106 1.194 2.134-.746.413-2.176-3.888-.024-.073c-.447-.799-1.461-1.087-2.265-.642-.761.421-1.038 1.343-.688 2.119l.02.172 2.202 3.935-.719.398-5.349-9.559-.153-.173c-.492-.654-1.385-.884-2.123-.475-.785.435-1.067 1.405-.663 2.195l.009.076 7.388 13.2-4.318-1.145c-.855-.081-1.741.495-1.979 1.286s.262 1.498 1.117 1.579l8.417 3.825c.457.378 1.189.437 1.842.075l7.926-4.389c.896-.751 1.985-2.048 2.113-4.05.096-1.51-.282-2.879-.732-3.961z"/>
</svg>
