<svg xmlns="http://www.w3.org/2000/svg" viewBox="0 0 52 52" enable-background="new 0 0 52 52">
  <path d="M11 11v30h30v-30h-30zm27.949 27.949h-25.898v-20.308h25.898v20.308zm-18.787-3.758h2.533v-13.27h-2.055c-.291.805-.822 1.512-1.596 2.113-.775.606-1.496 1.012-2.156 1.231v2.297c1.258-.414 2.349-1.051 3.274-1.918v9.547zm9.944-4.465c.955 0 1.754-.367 2.393-1.109-.102 1.519-.336 2.515-.703 2.996-.367.48-.815.723-1.336.723-.416 0-.75-.121-1.002-.363-.25-.238-.408-.609-.469-1.105l-2.451.266c.18 1.098.588 1.918 1.225 2.469.639.551 1.475.824 2.506.824 1.437 0 2.606-.535 3.502-1.606.894-1.067 1.342-2.813 1.342-5.231-.001-2.371-.43-4.078-1.292-5.113-.857-1.039-1.957-1.555-3.301-1.555-1.232 0-2.243.41-3.039 1.231-.799.82-1.195 1.898-1.195 3.238 0 1.289.375 2.332 1.131 3.133.754.805 1.651 1.203 2.689 1.203zm-.869-6.152c.31-.367.699-.555 1.168-.555.494 0 .926.227 1.305.68.375.449.563 1.082.563 1.902 0 .746-.166 1.309-.502 1.695-.334.383-.742.574-1.228.574-.508 0-.926-.199-1.262-.598-.338-.402-.508-1.028-.508-1.883 0-.84.158-1.445.465-1.816z"/>
</svg>
