<svg xmlns="http://www.w3.org/2000/svg" viewBox="0 0 52 52" enable-background="new 0 0 52 52">
  <path d="M36.992 14.456h-4.863l.007-.147v-.112c0-1.655-.676-2.997-1.511-2.997h-9.589c-.834 0-1.511 1.342-1.511 2.997v.112l.007.147h-4.525c-1.913 0-3.464 1.515-3.464 3.383v.126c0 1.868 1.551 1.502 3.464 1.502h21.984c1.913 0 3.464.366 3.464-1.502v-.126c0-1.868-1.551-3.383-3.464-3.383zm-.224 6.147c-.541 0-23.236-.269-23.649.093l-.009.012 2.659 15.659c.032 1.247.509 3.134 1.334 3.857.459.403 1.073.557 1.674.512l14.693.063c.596 0 1.13-.22 1.514-.569l.012-.007c.186-.163.318-.355.419-.553l.002-.002c.349-.681.503-1.552.531-2.254l2.326-16.257-.009-.012c-.413-.362-.955-.542-1.497-.542zm-16.58 15.35c-.715.062-1.318-.325-1.346-.864l-.619-10.026c-.028-.539.528-1.026 1.243-1.088.715-.062 1.318.325 1.346.864l.619 10.026c.028.539-.528 1.026-1.243 1.088zm5.993.013c-.717.001-1.298-.437-1.298-.977l-.006-10.049c0-.54.58-.979 1.297-.98.717-.001 1.298.437 1.298.977l.006 10.049c0 .54-.58.979-1.297.98zm7.224-.877c-.028.539-.631.926-1.346.864-.715-.062-1.272-.549-1.243-1.088l.619-10.026c.028-.539.631-.926 1.346-.864.715.062 1.272.549 1.243 1.088l-.619 10.026z"/>
</svg>
