<svg xmlns="http://www.w3.org/2000/svg" viewBox="0 0 52 52">
  <path d="M39.92,26,36,21.72a2,2,0,0,0-.34-.3v5h4.47A2.16,2.16,0,0,0,39.92,26Z" style="fill:#7d7f85"/>
  <path d="M35.42,27.79a.84.84,0,0,1-.65-.3,1,1,0,0,1-.27-.72V21H26.9a.84.84,0,0,0-.65.3A1,1,0,0,0,26,22V39a1,1,0,0,0,.26.72.83.83,0,0,0,.65.3H39.65a.83.83,0,0,0,.65-.3,1,1,0,0,0,.26-.72V27.79Zm2.1,6.08a.77.77,0,0,1-.19.52.62.62,0,0,1-.49.22H32.78l1.69,1.7a.73.73,0,0,1,0,1l-.43.44a.71.71,0,0,1-.52.21.74.74,0,0,1-.53-.21L29.23,34A.71.71,0,0,1,29,33.5a.74.74,0,0,1,.21-.53L33,29.22a.73.73,0,0,1,1,0l.43.43a.74.74,0,0,1,0,1.05l-1.69,1.69h4.07a.62.62,0,0,1,.49.22.77.77,0,0,1,.19.52Z" style="fill:#7d7f85"/>
  <path d="M24.92,17,21,12.72a2,2,0,0,0-.34-.3v5h4.47A2.16,2.16,0,0,0,24.92,17Z" style="fill:#7d7f85"/>
  <path d="M19.77,18.49a1,1,0,0,1-.27-.72V12H11.9a.84.84,0,0,0-.65.3A1,1,0,0,0,11,13V30a1,1,0,0,0,.26.72.83.83,0,0,0,.65.3H24.65a.83.83,0,0,0,.65-.3,1,1,0,0,0,.26-.72V18.79H20.42A.84.84,0,0,1,19.77,18.49Zm2.75,6a.74.74,0,0,1-.21.53l-3.76,3.75a.73.73,0,0,1-1,0l-.43-.43a.74.74,0,0,1,0-1.05l1.69-1.69H14.69a.62.62,0,0,1-.49-.22.77.77,0,0,1-.19-.52v-.74a.77.77,0,0,1,.19-.52.62.62,0,0,1,.49-.22h4.07l-1.69-1.7a.73.73,0,0,1,0-1l.43-.44A.71.71,0,0,1,18,20a.74.74,0,0,1,.53.21L22.31,24A.71.71,0,0,1,22.52,24.5Z" style="fill:#7d7f85"/>
</svg>
