<svg xmlns="http://www.w3.org/2000/svg" viewBox="0 0 52 52" enable-background="new 0 0 52 52">
  <path fill-rule="evenodd" clip-rule="evenodd" d="M39.922 17.454l.004.003-.034.034-.024.03-.029.024-21.372 21.26c-.135.221-.368.375-.647.375-.237 0-.441-.112-.582-.279l-4.211-4.152c-.154-.152-.227-.354-.224-.555l-.001-.004c0-.255.133-.47.326-.609l-.035-.035 21.389-21.276.049-.059.06-.049.007-.007.001.001c1.478-1.404 3.818-1.391 5.271.055 1.453 1.445 1.467 3.772.055 5.244zm-8.322-3.791l-.017.017-.004.006-.006.004-7.864 7.822-.004.006-.006.004-.089.088-.018-.017c-.523.423-1.284.41-1.772-.074-.487-.484-.5-1.243-.075-1.762l-.017-.017.084-.084.008-.011.011-.008 7.854-7.813.008-.011.011-.008.012-.012.002.003c.522-.495 1.346-.493 1.859.017.513.511.515 1.33.017 1.849l.004.003zm-14.781 26.45l.001.005c0 .422-.345.765-.77.765h-4.241l-.006.001c-.213 0-.406-.086-.545-.225-.14-.139-.226-.33-.226-.542l.001-.006v-4.219c0-.423.345-.767.77-.767.237 0 .441.112.582.28l4.211 4.152c.154.153.227.354.223.554z"/>
</svg>
