<svg xmlns="http://www.w3.org/2000/svg" viewBox="0 0 52 52" enable-background="new 0 0 52 52">
  <path d="M22.142 15.629c-.837.317-1.751.701-2.743 1.15-.727.34-1.2.553-1.421.64.297-2.136.446-3.604.446-4.404h-2.941c0 1.128.132 2.586.397 4.371-1.135-.701-2.423-1.342-3.866-1.923l-.975 2.893c.297.11.914.28 1.851.51 1.3.318 2.087.499 2.362.543l-.644.624c-.859.811-1.685 1.66-2.478 2.547l2.495 1.923c.87-1.337 1.641-2.597 2.313-3.78l2.231 3.665 2.528-1.66c-.231-.284-.545-.652-.942-1.101l-1.983-2.218c1.608-.264 3.023-.531 4.246-.806l-.876-2.974zm7.293 19.897v-5.585h10.357v-3.458h-10.358v-4.549h11.131v-3.472h-15.297v20.522h15.691v-3.458h-11.525z"/>
</svg>
