<svg xmlns="http://www.w3.org/2000/svg" viewBox="0 0 52 52" enable-background="new 0 0 52 52">
  <path d="M22.705 25.83l-.013-.008-.364-.235-.006.009c-3.7-2.257-6.532-3.234-5.666-4.734.76-1.316 4.088.338 8.055 2.652l2.649-3.729c-7.14-4.23-12.479-5.345-15.453-1.284-2.309 3.152 1.092 6.712 8.15 11.059l.002-.003c3.746 2.368 7.229 4.984 6.135 6.477-.788 1.076-4.758-.806-8.724-3.12l-2.484 3.705c7.14 4.23 13.892 5.566 16.143 2.372 2.21-3.135-1.605-8.84-8.424-13.16zm17.123-14.223c-1.838-1.061-2.964.535-2.964.535l-8.653 9.912-.507 4.598 4.072-1.927 8.588-10.153s1.303-1.903-.535-2.964z"/>
</svg>
