<svg xmlns="http://www.w3.org/2000/svg" viewBox="0 0 52 52" enable-background="new 0 0 52 52">
  <path d="M21.965 26.875h-5.201c.051-2.104.541-3.791 1.472-5.059.931-1.268 2.467-2.257 4.609-2.967l-2.103-4.413c-2.295.812-4.182 1.928-5.66 3.347-1.479 1.421-2.493 3.024-3.041 4.813-.549 1.788-.822 4.229-.822 7.324v7.646h10.747v-10.69zm17.937 0h-5.202c.051-2.104.541-3.791 1.473-5.059.93-1.268 2.467-2.257 4.608-2.967l-2.103-4.413c-2.27.812-4.15 1.928-5.641 3.347-1.492 1.421-2.512 3.019-3.06 4.794-.548 1.775-.822 4.223-.822 7.342v7.646h10.747v-10.69z"/>
</svg>
