<svg xmlns="http://www.w3.org/2000/svg" viewBox="0 0 52 52" enable-background="new 0 0 52 52">
  <path d="M21.956 25.802l3.816-3.816c-2.094.034-3.781 1.722-3.816 3.816zm4.609 3.876c1.56-.297 2.787-1.523 3.084-3.084l-3.084 3.084zM26 18.347c.612 0 1.203.083 1.772.224l2.9-2.9c-1.471-.706-3.04-1.15-4.672-1.15-8.284 0-15 11.33-15 11.33s1.541 2.663 4.052 5.44l3.63-3.63c-.116-.535-.182-1.09-.182-1.661 0-4.227 3.358-7.653 7.5-7.653zm11.025 2.285l-3.707 3.707c.116.535.182 1.09.182 1.661 0 4.227-3.358 7.653-7.5 7.653-.612 0-1.203-.083-1.772-.224l-2.88 2.88c1.465.719 3.028 1.17 4.652 1.17 8.284 0 15-11.629 15-11.629s-1.509-2.542-3.975-5.218zM35.192 13.979l2.828 2.828-21.213 21.213-2.828-2.828z"/>
</svg>
