<svg xmlns="http://www.w3.org/2000/svg" viewBox="0 0 52 52" enable-background="new 0 0 52 52">
  <path d="M26,14.5204c-8.2836,0-15,11.3302-15,11.3302s6.7164,11.629,15,11.629s15-11.629,15-11.629S34.2836,14.5204,26,14.5204z M26,33.6531c-4.1421,0-7.5-3.4265-7.5-7.6531c0-4.2266,3.3579-7.653,7.5-7.653s7.5,3.4264,7.5,7.653C33.5,30.2266,30.1421,33.6531,26,33.6531z M26,22.1885c-2.0709,0-3.75,1.7115-3.75,3.8265c0,2.115,1.6791,3.8265,3.75,3.8265s3.75-1.7115,3.75-3.8265C29.75,23.9,28.0709,22.1885,26,22.1885z"/>
</svg>
