<svg xmlns="http://www.w3.org/2000/svg" enable-background="new 0 0 52 52" viewBox="0 0 52 52">
    <path fill-rule="evenodd" d="M36.771 12.376l-.008-.017c-.194-.261-.421-.444-.657-.586l-.003-.003c-.809-.488-1.786-.303-2.45.59l-11.986 11.512-.014.013c-.43.578-.644 1.336-.643 2.094-.001.757.214 1.516.643 2.094l.014.013 11.986 11.512c.859 1.155 2.252 1.155 3.11 0 .478-.643.662-1.502.608-2.342l.075-22.762c0-.834-.262-1.581-.675-2.118zm-22.217 28.143h4.616v-29.039h-4.616v29.039z" clip-rule="evenodd"/>
</svg>
