<svg xmlns="http://www.w3.org/2000/svg" enable-background="new 0 0 52 52" viewBox="0 0 52 52">
    <path d="M36.347 11.291h-20.693c-2.452 0-4.44 1.978-4.44 4.416v20.585c0 2.439 1.988 4.416 4.44 4.416h20.693c2.452 0 4.44-1.977 4.44-4.416v-20.585c0-2.438-1.988-4.416-4.44-4.416zm.386 22.181c0 1.771-1.443 3.206-3.223 3.206h-15.023c-1.78 0-3.224-1.435-3.224-3.206v-14.945c0-1.77 1.443-3.206 3.224-3.206h15.023c1.78 0 3.223 1.436 3.223 3.206v14.945zm-14.062-13.724c-.115-.114-.251-.195-.391-.258l-.002-.001c-.481-.215-1.063-.134-1.458.259l-5.095 5.069-.009.005c-.256.254-.383.588-.383.921 0 .334.127.667.383.922l.009.006 5.095 5.068c.511.509 1.34.509 1.851 0 .284-.283.394-.661.362-1.03l.045-10.022c0-.367-.156-.696-.402-.933l-.005-.007zm6.367.012v.001c-.284.283-.394.661-.362 1.032l-.045 10.021c0 .367.156.696.402.932l.005.008c.115.115.25.196.391.258l.002.001c.481.215 1.063.134 1.458-.259l5.095-5.069.008-.006c.256-.255.383-.588.383-.921 0-.334-.127-.667-.383-.922l-.008-.005-5.095-5.069c-.512-.508-1.34-.508-1.851 0z"/>
</svg>
