<svg xmlns="http://www.w3.org/2000/svg" enable-background="new 0 0 52 52" viewBox="0 0 52 52">
    <path d="M25.995 35.493c3.052-.492-5-6.89-5-16 0-6.267 5.397-6.77 5.305 2.195-.091 8.965 2.735 1.494 4.375 0 1.641-1.494 10.306-3.069 6.751 4.517-3.555 7.586-3.555 8.505-2.917 9.195.638.69 3.958-4.465 5.834-9.195 1.755-4.425-.367-7.804-3.502-9.006-2.943-1.07-7.625.811-7.625.811s-2.273-6.517-6.376-6.517c-4.102 0-5.834 4.86-5.834 7.356 0 2.496 3.958 17.454 8.987 16.644zm-14.985 2.003v3.011h29.994v-3.011h-29.994zm1.985-2.003l1-2 1 2h2l-2-3 2-3h-2l-1 2-1-2h-2l2 3-2 3h2z"/>
</svg>
