<svg xmlns="http://www.w3.org/2000/svg" enable-background="new 0 0 52 52" viewBox="0 0 52 52">
    <path d="M31.394 24.201l3.719-3.785 3.444 3.429 1.686-12.089-12.186 1.637 3.455 3.439-3.708 3.774 3.59 3.596zm-10.773 3.59l-3.72 3.785-3.444-3.429-1.686 12.089 12.186-1.637-3.455-3.439 3.708-3.774-3.59-3.596zm-3.79-7.288l3.774 3.708 3.596-3.59-3.785-3.719 3.429-3.444-12.089-1.686 1.637 12.186 3.439-3.455zm18.329 11.01l-3.774-3.708-3.596 3.59 3.785 3.719-3.429 3.444 12.089 1.686-1.637-12.186-3.439 3.455z"/>
</svg>
