<svg xmlns="http://www.w3.org/2000/svg" enable-background="new 0 0 52 52" viewBox="0 0 52 52">
    <path d="M19.42 27.473l-.606 2.774 2.849.482.545 2.894 2.788-.603 1.636 2.412 2.364-1.628 2.364 1.688 1.576-2.472 2.849.603.545-2.834 2.849-.482-.606-2.894 2.424-1.568-1.636-2.352 1.636-2.352-2.424-1.568.606-2.834-2.849-.543-.545-2.834-2.849.603-1.576-2.412-2.364 1.628-2.424-1.688-1.515 2.533-2.848-.663-.545 2.834-2.849.543.606 2.834-2.424 1.568 1.636 2.352-1.636 2.352 2.424 1.628zm-8.409 10.023v3.011h29.994v-3.011h-29.994zm1.985-2.003l1-2 1 2h2l-2-3 2-3h-2l-1 2-1-2h-2l2 3-2 3h2z"/>
</svg>
