<svg xmlns="http://www.w3.org/2000/svg" enable-background="new 0 0 52 52" viewBox="0 0 52 52">
    <path d="M38.843 13.849c-3.622-4.519-8.989-1.128-8.989-1.128s-3.68 3.455-3.68 3.596c1.062-.141 3.495 1.052 3.495 1.052l1.969-1.956s2.05-1.323 3.938 0c2.299 1.611.985 4.891.985 4.891l-6.892 6.847s-1.744 2.379-3.938 1.956c-2.194-.423-2.954-1.956-2.954-1.956l-2.265 2.21c4.388 5.852 9.767 1.692 9.767 1.692l4.53-4.513 4.176-4.09s3.503-4.054-.142-8.602zm-16.343 20.651l-2 2s-2.082 1.352-4 0c-2.335-1.647-1-5-1-5l7-7s1.772-2.433 4-2c2.228.432 3 2 3 2l2.3-2.26c-4.457-5.983-9.92-1.73-9.92-1.73l-4.6 4.613-4.241 4.181s-3.558 4.145.144 8.794c3.678 4.619 9.129 1.153 9.129 1.153s3.738-3.532 3.738-3.676c-1.078.144-3.549-1.076-3.549-1.076z"/>
</svg>
