<svg xmlns="http://www.w3.org/2000/svg" enable-background="new 0 0 52 52" viewBox="0 0 52 52">
    <path d="M13.881 32.755c-1.621 0-2.935 1.307-2.935 2.92 0 1.612 1.314 2.92 2.935 2.92s2.935-1.308 2.935-2.92c0-1.613-1.314-2.92-2.935-2.92zm0-19.349c-1.621 0-2.935 1.308-2.935 2.92 0 1.612 1.314 2.92 2.935 2.92s2.935-1.307 2.935-2.92c0-1.612-1.314-2.92-2.935-2.92zm0 9.508c-1.621 0-2.935 1.308-2.935 2.92 0 1.612 1.314 2.92 2.935 2.92s2.935-1.308 2.935-2.92c0-1.612-1.314-2.92-2.935-2.92zm6.709-7.946v2.716h20.463v-2.716h-20.463zm0 21.732h20.463v-2.716h-20.463v2.716zm0-9.508h20.463v-2.717h-20.463v2.717z"/>
</svg>
