<svg xmlns="http://www.w3.org/2000/svg" enable-background="new 0 0 52 52" viewBox="0 0 52 52">
    <path d="M40.647 25.631c.058.001-1.298 6.322-1.972 9.013v.255c0 .824-.671 1.492-1.5 1.492h-23.707l4.614-12.255s.733-1.051 1.317-1.051l19.276-.005v.049c.586.004 1.4.025 1.799.102.684.13.172 2.4.172 2.4zm-23.734-3.105l-5.358 13.362c-.237-.264-.385-.608-.385-.99v-15.193c0-.824.671-1.491 1.5-1.491h1.04c.434-.979 1.266-2.522 2.203-2.556.569-.02 1.952-.046 1.952-.046l2.245-.003s1.278.029 1.733.044c1.127.036 2.037 1.642 2.467 2.561h12.867c.828 0 1.5.668 1.5 1.491v1.507h-20.144c-.73 0-1.618 1.313-1.618 1.313z"/>
</svg>
