<svg xmlns="http://www.w3.org/2000/svg" enable-background="new 0 0 52 52" viewBox="0 0 52 52">
    <path d="M37.047 11.146h-15.989c-1.895 0-3.43 1.528-3.43 3.412v15.905c0 .183.026.359.054.534l-5.383 5.354c-1.035 1.029-1.035 2.7 0 3.729 1.036 1.03 2.714 1.03 3.749 0l6.238-6.205h14.761c1.895 0 3.43-1.528 3.43-3.412v-15.905c0-1.884-1.536-3.412-3.431-3.412zm-1.119 16.012c0 1.165-.95 2.11-2.121 2.11h-9.888c-1.172 0-2.122-.945-2.122-2.11v-9.836c0-1.165.95-2.11 2.122-2.11h9.888c1.172 0 2.121.945 2.121 2.11v9.836zm-3.16-6.726h-2.485v-2.472c0-.896-.73-1.622-1.631-1.622s-1.631.726-1.631 1.622v2.472h-2.498c-.901 0-1.631.726-1.631 1.622 0 .896.73 1.623 1.631 1.623h2.498v2.485c0 .896.73 1.623 1.631 1.623s1.631-.727 1.631-1.623v-2.485h2.485c.901 0 1.631-.727 1.631-1.623s-.73-1.622-1.631-1.622z"/>
</svg>
