<svg xmlns="http://www.w3.org/2000/svg" enable-background="new 0 0 52 52" viewBox="0 0 52 52">
    <path d="M17.668 17.531l-6.526 16.666h3.588l1.383-3.785h6.697l1.463 3.785h3.68l-6.708-16.666h-3.577zm-.514 10.072l2.263-6.184 2.309 6.184h-4.571zm23.127 4.974c-.103-.504-.154-1.287-.154-2.348l.034-3.728c0-1.387-.143-2.34-.429-2.859-.286-.519-.779-.948-1.48-1.285-.701-.338-1.768-.506-3.2-.506-1.577 0-2.766.28-3.566.841-.8.561-1.364 1.426-1.691 2.592l2.914.523c.198-.561.457-.953.777-1.176.32-.225.766-.336 1.337-.336.846 0 1.421.131 1.726.392.305.261.457.699.457 1.313v.319c-.579.243-1.619.504-3.12.784-1.113.212-1.964.461-2.554.745-.591.284-1.05.693-1.377 1.227-.328.534-.491 1.144-.491 1.825 0 1.03.36 1.883 1.08 2.558.72.674 1.704 1.011 2.954 1.011.709 0 1.375-.132 2-.398s1.212-.663 1.76-1.193l.114.375c.122.417.225.731.309.944h3.177c-.282-.576-.474-1.116-.577-1.62zm-3.274-3.541c0 .765-.042 1.284-.126 1.557-.122.417-.377.769-.766 1.058-.526.379-1.078.568-1.657.568-.518 0-.945-.162-1.28-.488-.335-.326-.503-.713-.503-1.16 0-.455.21-.83.629-1.125.274-.182.857-.368 1.748-.557.891-.19 1.543-.352 1.954-.489v.637z"/>
</svg>
