<svg xmlns="http://www.w3.org/2000/svg" enable-background="new 0 0 52 52" viewBox="0 0 52 52">
    <path fill-rule="evenodd" d="M37.029 37.781c-1.326 1.983-3.208 2.75-4.628 3.041l-9.52-.149c-.963-.015-1.756-.559-1.988-1.285l-6.664-9.311c-.874-.619-.971-1.695-.216-2.403s2.075-.781 2.949-.161l3.973 3.942.055-3.523c.004-.241.07-.468.184-.674v-12.042c0-1.003.817-1.815 1.825-1.815h.003c1.008 0 1.825.812 1.825 1.815v11.071l.913.014v-13.324c0-.995.811-1.801 1.811-1.801 1 0 1.811.806 1.811 1.801v13.38l.945.016v-11.157c0-1.003.817-1.815 1.825-1.815h.003c1.008 0 1.825.812 1.825 1.815v11.214l.882.014v-8.44c0-1.002.817-1.815 1.825-1.815h.003c1.008 0 1.825.813 1.825 1.815v16.345c-.268 1.119-.72 2.315-1.466 3.431z" clip-rule="evenodd"/>
</svg>
