<svg xmlns="http://www.w3.org/2000/svg" id="Layer_1" data-name="Layer 1" viewBox="0 0 52 52">
    <title>
        Full Viewer Icon Set
    </title>
    <path d="M31.46,17.83h2V33.47a7.31,7.31,0,0,1-2.17,5.33A7.16,7.16,0,0,1,26,41a7.52,7.52,0,0,1-7.53-7.53v-17A5.56,5.56,0,0,1,24,11a5.17,5.17,0,0,1,3.83,1.63,5.33,5.33,0,0,1,1.6,3.86v14.3A3.38,3.38,0,0,1,26,34.17a3.37,3.37,0,0,1-2.43-1,3.21,3.21,0,0,1-1-2.39v-13h2v13a1.25,1.25,0,0,0,.41,1,1.41,1.41,0,0,0,1,.38,1.31,1.31,0,0,0,1.34-1.34V16.49a3.37,3.37,0,0,0-1-2.43A3.21,3.21,0,0,0,24,13a3.49,3.49,0,0,0-3.45,3.45v17A5.56,5.56,0,0,0,26,39a5.17,5.17,0,0,0,3.83-1.63,5.33,5.33,0,0,0,1.6-3.86V17.83Z" style="fill:#7d7f85"/>
</svg>
