<svg xmlns="http://www.w3.org/2000/svg" viewBox="0 0 52 52">
    <path d="M20.51,36.43a1.49,1.49,0,0,1-1-.41l-2.55-2.41a1.51,1.51,0,0,1-.06-2.12L34.34,13a1.51,1.51,0,0,1,2.12-.06L39,15.34a1.51,1.51,0,0,1,.06,2.12L21.6,36A1.49,1.49,0,0,1,20.51,36.43Z" style="fill:#7d7f85"/>
    <path d="M35.43,13h0a1,1,0,0,1,.69.27l2.55,2.41a1,1,0,0,1,0,1.41L21.24,35.61a1,1,0,0,1-1.41,0l-2.55-2.41a1,1,0,0,1,0-1.41L34.7,13.34a1,1,0,0,1,.73-.31m0-1a2,2,0,0,0-1.46.62L16.51,31.15A2,2,0,0,0,16.59,34l2.55,2.41A2,2,0,0,0,22,36.3l17.46-18.5A2,2,0,0,0,39.35,15L36.8,12.57A2,2,0,0,0,35.43,12Z" style="fill:#7d7f85"/>
    <path d="M14.3,39.46a.5.5,0,0,1-.48-.64L15.87,32a.5.5,0,0,1,.35-.34l.13,0a.5.5,0,0,1,.34.14l4.62,4.36a.5.5,0,0,1-.17.83l-6.67,2.44A.5.5,0,0,1,14.3,39.46Z" style="fill:#7d7f85"/>
    <path d="M16.35,32.16,21,36.52,14.3,39l2.05-6.8m0-1a1,1,0,0,0-1,.71l-2.05,6.8a1,1,0,0,0,1.3,1.23l6.67-2.44a1,1,0,0,0,.34-1.67L17,31.43a1,1,0,0,0-.69-.27Z" style="fill:#7d7f85"/>
    <path d="M15.53,32.18c.8.75,1.26,2,.89,2.42" style="fill:none;stroke:#fff;stroke-linecap:round;stroke-linejoin:round"/>
    <path d="M21,37.34c-.8-.75-2.09-1.14-2.47-.75" style="fill:none;stroke:#fff;stroke-linecap:round;stroke-linejoin:round"/>
    <path d="M18.34,35.1a1.2,1.2,0,0,1,.18,1.49" style="fill:none;stroke:#fff;stroke-linecap:round;stroke-linejoin:round"/>
    <path d="M18.34,35.1c-.6-.57-1.61-.82-1.92-.49" style="fill:none;stroke:#fff;stroke-linecap:round;stroke-linejoin:round"/>
    <path d="M23,18a.92.92,0,1,1,0,1.83H13.38a.92.92,0,1,1,0-1.83Z" style="fill:#7d7f85"/>
    <line x1="32.16" x2="40.98" y1="14.15" y2="22.47" style="fill:none;stroke:#fff;stroke-linecap:round;stroke-linejoin:round"/>
</svg>
