<svg xmlns="http://www.w3.org/2000/svg" viewBox="0 0 52 52" enable-background="new 0 0 52 52">
    <circle cx="22.8" cy="19.4" r="6.4"></circle>
    <path d="M 23.36 29.016 C 18.992 28.856 10 31.032 10 35.4 L 10 38.6 L 25.264 38.6 C 21.312 34.184 23.296 29.176 23.36 29.016 Z M 37.888 35.432 C 38.464 34.488 38.8 33.384 38.8 32.2 C 38.8 28.664 35.936 25.8 32.4 25.8 C 28.864 25.8 26 28.664 26 32.2 C 26 35.736 28.864 38.6 32.4 38.6 C 33.584 38.6 34.688 38.248 35.632 37.688 L 39.744 41.8 L 42 39.544 L 37.888 35.432 Z M 32.4 35.4 C 30.64 35.4 29.2 33.96 29.2 32.2 C 29.2 30.44 30.64 29 32.4 29 C 34.16 29 35.6 30.44 35.6 32.2 C 35.6 33.96 34.16 35.4 32.4 35.4 Z"></path>
</svg>