<svg xmlns="http://www.w3.org/2000/svg" enable-background="new 0 0 52 52" viewBox="0 0 52 52">
    <path d="M16.472 15.447h3.434v-3.83h-7.54v7.006h4.105v-3.176zm13.128-3.83h-6.316v3.83h6.316v-3.83zm3.378 0v3.83h3.318v3.176h3.643v-7.006h-6.961zm-13.071 13.571h-3.434v-3.188h-4.105v6.914h7.54v-3.726zm16.389 0h-3.318v3.726h6.961v-6.914h-3.643v3.188zm-2.956 7.967c-.072-.16-.165-.314-.296-.446l-.008-.005c-.272-.281-.649-.459-1.07-.459l-11.495.051c-.424-.036-.858.088-1.183.413-.583.583-.583 1.529 0 2.112l5.814 5.814.006.01c.292.292.675.438 1.057.437.383.001.766-.145 1.058-.437l.006-.01 5.814-5.814c.451-.451.544-1.114.298-1.663l-.002-.002zm-3.74-7.967h-6.316v3.726h6.316v-3.726z"/>
</svg>
