<svg xmlns="http://www.w3.org/2000/svg" enable-background="new 0 0 52 52" viewBox="0 0 52 52">
    <path d="M36.531 34.047h-.759l.005-.023v-5.213c0-.441-.36-.799-.803-.799h-18.154c-.444 0-.803.358-.803.799v5.213l.005.023h-.875c-2.064 0-3.737-1.664-3.737-3.717v-7.927c0-2.053 1.673-3.717 3.737-3.717h.87v2.124c0 .441.359.799.803.799h18.154c.444 0 .803-.358.803-.799v-2.124h.754c2.064 0 3.737 1.664 3.737 3.717v7.927c0 2.053-1.673 3.717-3.737 3.717zm-18.475-19.86h16.003v5.502h-16.003v-5.502zm16.003 25.183h-16.003v-9.219h16.003v9.219z"/>
</svg>
