<svg xmlns="http://www.w3.org/2000/svg" viewBox="0 0 52 52">
    <path d="M41 26c0-.563-.037-1.118-.098-1.667h-1.685c-.752-6.028-5.522-10.798-11.55-11.55v-1.685C27.117 11.038 26.563 11 26 11s-1.118.037-1.667.098v1.685c-6.028.752-10.798 5.522-11.55 11.55h-1.685c-.06.55-.098 1.104-.098 1.667s.037 1.118.098 1.667h1.685c.752 6.028 5.522 10.798 11.55 11.55v1.686c.55.06 1.104.097 1.667.097s1.118-.037 1.667-.098v-1.685c6.026-.754 10.798-5.522 11.55-11.55h1.686c.06-.547.097-1.102.097-1.667zm-13.333 9.85v-1.517c0-.92-.747-1.666-1.667-1.666s-1.667.745-1.667 1.666v1.517c-4.183-.703-7.478-3.997-8.18-8.182h1.514c.92 0 1.666-.748 1.666-1.668s-.745-1.667-1.666-1.667H16.15c.705-4.183 4-7.478 8.183-8.183v1.517c0 .92.747 1.666 1.667 1.666s1.667-.746 1.667-1.666V16.15c4.185.703 7.48 3.998 8.183 8.183h-1.517c-.92 0-1.666.747-1.666 1.667s.745 1.667 1.666 1.667h1.517c-.705 4.186-3.998 7.48-8.183 8.183z"/>
</svg>
