<?xml version="1.0" encoding="utf-8"?>
<svg xmlns="http://www.w3.org/2000/svg" xmlns:xlink="http://www.w3.org/1999/xlink" id="Layer_1" x="0px" y="0px" enable-background="new 0 0 52 52" version="1.1" viewBox="0 0 52 52" xml:space="preserve">
    <path d="M33.7593,27.3558c-1.1591-1.3321-2.5294-1.0527-4.1088-2.5203c-0.7836-0.7282-0.7091-5.26-0.7091-5.26
	s-0.0588-3.9294,0.7461-4.7345c0.5564-0.5552,1.5333-0.6988,2.1024-1.2576c0.0055-0.0039,0.0091-0.0076,0.013-0.0127
	c0.123-0.123,0.2227-0.2679,0.2964-0.4397c0.0091-0.0182,0.0191-0.0321,0.0255-0.05c0.05-0.1309,0.077-0.2845,0.0912-0.45
	c0.0039-0.0424,0.0242-0.0782,0.0242-0.1206c0-0.0076-0.0039-0.0139-0.0052-0.0218c0.0012-0.0115,0.0052-0.0203,0.0052-0.0318
	c0-0.0282-0.0215-0.0424-0.0242-0.0682C32.1502,11.6139,31.5208,11,30.7299,11h-9.46c-0.7909,0-1.4206,0.6139-1.4858,1.3885
	c-0.0027,0.0255-0.0245,0.0397-0.0245,0.0682c0,0.0115,0.0039,0.0203,0.0052,0.0318c-0.0012,0.0079-0.0052,0.0142-0.0052,0.0218
	c0,0.0424,0.0206,0.0782,0.0245,0.1206c0.0139,0.1652,0.0409,0.3191,0.0909,0.45c0.0064,0.0179,0.0167,0.0318,0.0258,0.05
	c0.073,0.1718,0.173,0.3167,0.2961,0.4397c0.0039,0.0052,0.0076,0.0088,0.0127,0.0127c0.5691,0.5591,1.5461,0.7024,2.1024,1.2576
	c0.8052,0.8052,0.7461,4.7345,0.7461,4.7345s0.0745,4.5318-0.7091,5.26c-1.5791,1.4676-2.9494,1.1882-4.1082,2.5203
	c-0.8206,0.9436-0.6703,2.6255-0.6703,2.6255h7.7791v6.8548L25.9314,41h0.1385l0.5821-4.1639v-6.8548h7.7776
	C34.4296,29.9812,34.5796,28.2994,33.7593,27.3558z"/>
</svg>
