<svg xmlns="http://www.w3.org/2000/svg" enable-background="new 0 0 52 52" viewBox="0 0 52 52">
    <path d="M36.539 33.438c0 1.741-1.419 3.152-3.169 3.152h-.57l.001 3.962h3.358c2.411 0 4.365-1.943 4.365-4.341v-3.4l-3.985.001v.626zm-.38-21.806h-3.359l.001 3.962h.569c1.75 0 3.169 1.411 3.169 3.152v.444l3.985-.001v-3.215c0-2.398-1.954-4.342-4.365-4.342zm.38 17.167l3.985-.001v-5.596l-3.985.001v5.596zm-21.107-10.053c0-1.74 1.419-3.152 3.169-3.152h.579l-.001-3.962h-3.363c-2.411 0-4.365 1.944-4.365 4.342v3.216l3.981-.001v-.443zm13.357-3.152l-.001-3.962h-5.596l.001 3.962h5.596zm4.827 10.199c0-1.198-.977-2.17-2.182-2.17h-3.325v-3.307c0-1.199-.977-2.17-2.182-2.17s-2.182.971-2.182 2.17v3.307h-3.342c-1.205 0-2.182.972-2.182 2.17s.977 2.171 2.182 2.171h3.342v3.324c0 1.198.977 2.171 2.182 2.171s2.182-.972 2.182-2.171v-3.324h3.325c1.205 0 2.182-.972 2.182-2.171zm-10.424 10.797l.001 3.962h5.596l-.001-3.962h-5.596zm-7.759-13.388l-3.981.001v5.596l3.981-.001v-5.596zm3.169 13.388c-1.75 0-3.169-1.411-3.169-3.152v-.627l-3.981.001v3.399c0 2.398 1.954 4.341 4.365 4.341h3.364l-.001-3.962h-.577z"/>
</svg>
