<svg xmlns="http://www.w3.org/2000/svg" enable-background="new 0 0 52 52" viewBox="0 0 52 52">
    <path d="M25.731 34.585c.499-.575.27-.332 0-1.141-2.905-8.698 4.776-16.911 11.765-13.08.583.319.875-.192 1.248-.618l.158-.191c.127-.082.259-.188.402-.351 1.576-1.797 1.768-4.044.192-5.841-1.576-1.797-4.323-2.463-5.899-.666l-.083.108-14.38 16.396 5.665 6.459.931-1.076zm-4.73 4.129l-4.502-5.088-.044-.04-.107-.098-.155-.119-.201-.054-.115-.031-.01.002-.01-.002-.115.031-.201.054-.155.119-.108.098-.044.04-4.502 5.088c-.164.187-.242.433-.238.679l-.001.006c0 .519.369.939.824.939h4.534l.006.002.01-.002.01.002.006-.002h4.534c.455 0 .823-.42.823-.939l-.001-.006c.004-.246-.074-.492-.239-.679zm-2.739-8.517l-1.007 1.148.038.043c-.206.171-.348.434-.348.746l.001.006c-.004.245.074.492.239.679l4.502 5.088c.151.205.369.343.622.343.306 0 .563-.199.705-.483.096-.119.347-.425.923-1.1l-5.674-6.47zm15.742-8.827c-4.143 0-7.501 3.354-7.501 7.492 0 4.137 3.358 7.491 7.501 7.491 4.143 0 7.501-3.354 7.501-7.491 0-4.138-3.358-7.492-7.501-7.492zm-5.395 7.527c0-3 2.436-5.433 5.441-5.433 1.231 0 2.353.423 3.264 1.111l-7.593 7.582c-.689-.911-1.112-2.031-1.112-3.261zm5.441 5.434c-1.069 0-2.059-.319-2.9-.851l7.489-7.478c.533.839.852 1.828.852 2.895 0 3.001-2.436 5.434-5.441 5.434zm-10.896 4.626v1.406h14.557v-1.407l-14.557.001z"/>
</svg>
