<svg xmlns="http://www.w3.org/2000/svg" enable-background="new 0 0 52 52" viewBox="0 0 52 52">
    <path d="M30.181 40.789c-4.659 0-8.435-3.757-8.435-8.391s3.777-8.39 8.435-8.39c4.659 0 8.435 3.756 8.435 8.39s-3.777 8.391-8.435 8.391zm-6.067-8.35c0 1.376.465 2.642 1.24 3.662l8.56-8.515c-1.025-.771-2.298-1.234-3.682-1.234-3.379 0-6.118 2.725-6.118 6.087zm11.285-3.251l-8.434 8.39c.946.596 2.064.947 3.267.947 3.379 0 6.118-2.725 6.118-6.086 0-1.197-.352-2.31-.952-3.251zm-15.512 3.249c0 3.155 1.432 5.974 3.681 7.861h-10.185v-20.967l8.162-8.12h14.547v12.772c-1.668-1.149-3.689-1.825-5.872-1.825-5.707 0-10.334 4.603-10.334 10.28zm3.267-20.254l-8.804 8.758h8.804v-8.758z"/>
</svg>
