<svg xmlns="http://www.w3.org/2000/svg" enable-background="new 0 0 52 52" viewBox="0 0 52 52">
    <path d="M32.012 17.8c-2.456-4.174-6.746-6.576-11.234-6.8l-.286 5.57c2.693.134 5.268 1.572 6.742 4.077 2.299 3.906 1.049 8.92-2.759 11.328l-1.676-2.819c-.179-.374-.497-.677-.929-.786-.775-.198-1.565.273-1.765 1.051l-1.991 7.77-.005.01c-.1.39-.033.783.156 1.104.188.321.499.57.887.669h.011l7.729 1.981c.599.154 1.2-.099 1.538-.579l.001-.002c.098-.141.181-.295.227-.471v-.009c.101-.368.063-.772-.144-1.125l-1.193-2.006c6.434-3.984 8.544-12.415 4.691-18.962z"/>
</svg>
