<svg xmlns="http://www.w3.org/2000/svg" enable-background="new 0 0 52 52" viewBox="0 0 52 52">
    <path d="M13.715 10.574v29.15h22.815v-29.15h-22.815zm20.016 26.159h-16.432v-23.151h16.432v23.151zm-8.743-4.12l-.819 1.378c-.143.242-.168.52-.099.773v.006c.031.121.088.227.156.323l.001.001c.232.33.645.503 1.056.398l5.31-1.361h.008c.267-.069.48-.239.61-.46.13-.22.176-.491.107-.758l-.003-.007-1.368-5.338c-.137-.535-.68-.859-1.213-.722-.296.075-.515.283-.638.54l-1.151 1.936c-2.616-1.654-3.474-5.098-1.895-7.782 1.012-1.72 2.781-2.708 4.631-2.8l-.197-3.826c-3.083.154-6.03 1.804-7.718 4.672-2.647 4.497-1.197 10.29 3.222 13.026z"/>
</svg>
