<svg xmlns="http://www.w3.org/2000/svg" enable-background="new 0 0 52 52" viewBox="0 0 52 52">
    <path d="M33.892 37.201l-.005-.01-1.991-7.77c-.2-.779-.99-1.25-1.765-1.051-.431.11-.75.412-.929.786l-1.676 2.819c-3.808-2.408-5.058-7.421-2.759-11.328 1.474-2.504 4.048-3.942 6.742-4.077l-.286-5.57c-4.488.224-8.778 2.627-11.234 6.801-3.853 6.547-1.743 14.979 4.691 18.962l-1.193 2.006c-.208.353-.245.757-.144 1.125v.009c.045.176.128.33.227.471l.001.002c.338.48.938.732 1.538.579l7.729-1.981h.011c.389-.1.699-.348.887-.669.189-.321.257-.715.156-1.104z"/>
</svg>
