<svg xmlns="http://www.w3.org/2000/svg" enable-background="new 0 0 52 52" viewBox="0 0 52 52">
    <path d="M14.592 11.425v29.15h22.815v-29.15h-22.815zm19.146 26.159h-16.348v-23.151h16.348v23.151zm-13.216-2.601h.008l5.31 1.361c.412.105.824-.068 1.056-.398l.001-.001c.067-.097.124-.203.156-.323v-.006c.069-.253.043-.531-.099-.773l-.819-1.378c4.42-2.737 5.869-8.529 3.223-13.026-1.687-2.867-4.634-4.518-7.718-4.672l-.197 3.826c1.85.092 3.619 1.08 4.631 2.8 1.579 2.683.721 6.127-1.895 7.782l-1.151-1.936c-.123-.257-.342-.465-.638-.54-.532-.136-1.075.187-1.213.722l-1.368 5.338-.004.007c-.069.268-.022.538.107.758.129.221.343.391.609.46z"/>
</svg>
