<svg xmlns="http://www.w3.org/2000/svg" enable-background="new 0 0 52 52" viewBox="0 0 52 52">
    <path d="M40.676 22.933v13.785c0 1.322.198 2.958-.552 3.546-.874.686-3.506.513-5.33.462v-10.566c0-.942-.768-1.706-1.715-1.706h-15.055c-.947 0-1.715.764-1.715 1.706v10.554h-3.15c-.445-.12-.926-.457-1.155-.799-.316-.473-.251-1.309-.251-2.098v-23.027c0-.576-.079-1.325.101-1.748.159-.376.544-.77.904-.949l.452-.151h2.528v9.691c0 .943.768 1.706 1.715 1.706h10.864c.947 0 1.715-.764 1.715-1.706v-9.692c.773-.004 1.57-.042 2.16.151 1.515.496 2.362 1.55 3.364 2.547l2.511 2.498c1.084 1.079 2.088 1.927 2.561 3.646.162.59.05 1.469.05 2.148zm-14.171-1.506h-3.036c-.514 0-.93-.414-.93-.925v-5.863c0-.511.416-.925.93-.925h3.036c.514 0 .93.414.93.925v5.863c0 .511-.417.925-.93.925zm-6.032 9.295h10.683c.672 0 1.217.541 1.217 1.21v7.668c0 .668-.545 1.21-1.217 1.21h-10.683c-.672 0-1.217-.542-1.217-1.21v-7.668c0-.669.545-1.211 1.217-1.211z"/>
</svg>
