<svg xmlns="http://www.w3.org/2000/svg" enable-background="new 0 0 52 52" viewBox="0 0 52 52">
    <path fill-rule="evenodd" d="M40.238 36.198c1.04 1.033 1.04 2.711 0 3.745-1.04 1.035-2.725 1.035-3.765 0l-7.75-7.709-.053-.065c-4.434 2.892-10.444 2.4-14.341-1.475-4.464-4.441-4.464-11.64 0-16.082 4.464-4.441 11.702-4.441 16.166 0 3.741 3.722 4.335 9.376 1.805 13.725l.188.152 7.75 7.709zm-13.617-17.781c-2.324-2.311-6.093-2.311-8.416 0-2.324 2.313-2.324 6.061 0 8.372 2.324 2.312 6.092 2.312 8.416 0 2.324-2.311 2.324-6.059 0-8.372z" clip-rule="evenodd"/>
</svg>
