<svg xmlns="http://www.w3.org/2000/svg" enable-background="new 0 0 52 52" viewBox="0 0 52 52">
    <path d="M14.142 14.29c.044.1.102.174.174.221.072.047.151.071.24.071h6.021v19.834c0 .095.022.177.066.247.044.071.121.127.232.168.11.041.259.076.447.106.187.029.413.044.678.044.276 0 .504-.015.686-.044.182-.029.328-.065.438-.106.11-.041.187-.097.232-.168.044-.071.066-.153.066-.247v-19.834h6.021c.088 0 .168-.024.24-.071.071-.047.132-.121.182-.221.05-.1.085-.233.107-.398.022-.165.033-.359.033-.583 0-.224-.011-.421-.033-.592-.022-.171-.058-.309-.107-.415-.05-.106-.11-.183-.182-.23-.072-.047-.152-.071-.24-.071h-14.886c-.088 0-.168.024-.24.071-.072.047-.13.124-.174.23-.044.106-.08.245-.107.415-.028.171-.041.368-.041.592 0 .224.014.418.041.583.027.165.063.298.108.398zm26.482 8.495c-.255-.865-.655-1.618-1.2-2.26-.545-.642-1.24-1.152-2.086-1.532-.846-.379-1.87-.569-3.073-.569-1.124 0-2.14.193-3.047.578-.908.385-1.683.938-2.324 1.657-.641.72-1.132 1.596-1.473 2.628-.341 1.032-.511 2.196-.511 3.49 0 1.362.164 2.556.494 3.583.329 1.027.817 1.881 1.464 2.561.647.681 1.444 1.194 2.392 1.54.948.346 2.052.519 3.311.519.726 0 1.41-.053 2.051-.159.641-.106 1.206-.226 1.694-.36.488-.134.885-.271 1.192-.41.306-.139.491-.24.553-.301l.153-.192.085-.226.043-.285.017-.377c0-.201-.009-.371-.026-.511s-.043-.248-.077-.327c-.034-.078-.083-.137-.146-.176-.063-.039-.134-.059-.214-.059-.137 0-.339.059-.608.176-.268.117-.61.248-1.027.393-.416.145-.909.276-1.48.393-.57.117-1.22.176-1.95.176-.924 0-1.705-.128-2.344-.385-.639-.257-1.158-.625-1.557-1.105s-.684-1.055-.856-1.724c-.171-.67-.256-1.423-.256-2.26h10.091c.285 0 .539-.092.761-.276.222-.184.334-.494.334-.929v-.502c0-.982-.128-1.906-.383-2.771zm-10.802 2.453c.023-.614.131-1.202.325-1.766.194-.564.468-1.057.822-1.482.354-.424.794-.764 1.319-1.021.525-.257 1.136-.385 1.833-.385 1.359 0 2.384.413 3.075 1.239.691.826 1.019 1.964.985 3.415h-8.359zm-18.815 14.761h29.994v-3.011h-29.994v3.011zm1.985-5.014l1-2 1 2h2l-2-3 2-3h-2l-1 2-1-2h-2l2 3-2 3h2z"/>
</svg>
