<svg xmlns="http://www.w3.org/2000/svg" enable-background="new 0 0 52 52" viewBox="0 0 52 52">
    <path d="M16.741 40.287h18.477v-2.855h-18.478v2.855zm13.851-28.573v12.789c0 1.829-.068 3.138-.205 3.926-.137.788-.541 1.453-1.214 1.995-.673.541-1.671.812-2.996.812-1.304 0-2.331-.286-3.083-.859-.752-.573-1.227-1.333-1.427-2.279-.116-.589-.173-1.877-.173-3.863v-12.521h-4.668v12.331c0 2.586.152 4.541.457 5.866.21.894.647 1.748 1.309 2.562.662.815 1.564 1.477 2.704 1.987 1.141.51 2.815.765 5.022.765 1.829 0 3.312-.234 4.447-.702 1.135-.468 2.042-1.096 2.72-1.884.678-.788 1.143-1.756 1.395-2.902.252-1.146.379-3.106.379-5.882v-12.142h-4.668z"/>
</svg>
