<svg xmlns="http://www.w3.org/2000/svg" enable-background="new 0 0 52 52" viewBox="0 0 52 52">
    <path d="M28.753 39.736c-.686 0-1.306-.171-1.86-.514-.412-.257-.657-.564-.737-.921-.103-.471-.024-1.443.235-2.914l3.31-18.771c.307-1.743.68-2.843 1.118-3.3.666-.7 1.592-1.05 2.778-1.05h1.05l.14-.793h-12.45l-.14.793h1.028c.686 0 1.313.172 1.881.514.397.257.636.565.716.921.102.471.024 1.443-.235 2.914l-3.31 18.771c-.307 1.743-.673 2.843-1.096 3.3-.666.7-1.599 1.05-2.799 1.05h-1.028l-.14.793h12.45l.14-.793h-1.05z"/>
</svg>
