<svg xmlns="http://www.w3.org/2000/svg" enable-background="new 0 0 52 52" viewBox="0 0 52 52">
    <path d="M13.649 40.667h10.038c3.795-.026 6.189-.093 7.181-.2 1.582-.174 2.913-.637 3.993-1.39 1.079-.754 1.931-1.762 2.555-3.021.624-1.261.935-2.558.935-3.892 0-1.694-.483-3.168-1.448-4.422-.966-1.254-2.347-2.142-4.144-2.663 1.274-.573 2.283-1.433 3.027-2.58.744-1.147 1.116-2.408 1.116-3.781 0-1.267-.302-2.412-.905-3.431-.603-1.021-1.358-1.837-2.263-2.451-.905-.614-1.931-1.018-3.078-1.211-1.147-.194-2.887-.29-5.22-.29h-11.788v29.333zm9.374-24.452c2.803 0 4.499.034 5.089.101.992.12 1.74.464 2.243 1.031.503.567.754 1.304.754 2.21 0 .947-.292 1.71-.875 2.291-.583.58-1.385.931-2.404 1.05-.563.067-2.005.101-4.325.101h-3.902v-6.784h3.419zm1.388 11.666c2.709 0 4.469.14 5.28.42.811.281 1.431.727 1.861 1.341.429.613.644 1.361.644 2.24 0 1.041-.279 1.872-.835 2.492-.556.619-1.277 1.01-2.162 1.17-.577.121-1.938.18-4.083.18h-5.511v-7.844h4.807z"/>
</svg>
