<svg xmlns="http://www.w3.org/2000/svg" enable-background="new 0 0 52 52" viewBox="0 0 52 52">
    <path d="M16.862 23.005h7.221c-1.94-.524-3.196-1.039-3.751-1.544-.728-.651-1.091-1.481-1.091-2.489 0-1.161.514-2.154 1.542-2.978 1.028-.823 2.665-1.235 4.912-1.235 2.157 0 3.788.453 4.893 1.36 1.104.907 1.752 2.247 1.944 4.021l3.562-.268c-.064-1.647-.524-3.121-1.379-4.423s-2.078-2.288-3.667-2.958c-1.589-.67-3.425-1.005-5.505-1.005-1.889 0-3.607.319-5.151.957-1.545.638-2.719 1.573-3.523 2.805-.804 1.232-1.206 2.556-1.206 3.974 0 1.29.329 2.454.986 3.495l.216.289zm13.87 5.737c.826.39 1.451.843 1.857 1.365.51.658.766 1.427.766 2.307 0 .868-.265 1.669-.795 2.403s-1.337 1.312-2.422 1.733c-1.085.421-2.336.632-3.753.632-1.596 0-3.032-.278-4.309-.833-1.277-.555-2.218-1.283-2.825-2.183-.606-.9-.993-2.052-1.159-3.456l-3.504.306c.051 1.877.565 3.559 1.542 5.046.977 1.487 2.323 2.601 4.04 3.341 1.717.74 3.846 1.111 6.386 1.111 2.004 0 3.807-.367 5.41-1.101 1.602-.734 2.831-1.762 3.686-3.083.855-1.321 1.283-2.729 1.283-4.222 0-1.244-.281-2.362-.813-3.366h-5.391zm-17.651-4.57v2.855h25.838v-2.855h-25.838z"/>
</svg>
