<svg xmlns="http://www.w3.org/2000/svg" viewBox="0 0 52 52">
    <path d="M27.61,31.54v2.92a.56.56,0,0,1-.17.42A.6.6,0,0,1,27,35H24a.6.6,0,0,1-.43-.16.56.56,0,0,1-.17-.42V31.54a.56.56,0,0,1,.17-.42A.6.6,0,0,1,24,31h3a.6.6,0,0,1,.43.16A.56.56,0,0,1,27.61,31.54Zm4.83-9a4.5,4.5,0,0,1-.28,1.64,3.31,3.31,0,0,1-.86,1.26,8.81,8.81,0,0,1-1,.8q-.41.27-1.12.66t-.88.51a2.36,2.36,0,0,0-.49.44.81.81,0,0,0-.22.53v.58a.56.56,0,0,1-.17.42.6.6,0,0,1-.43.16H24a.6.6,0,0,1-.43-.16.56.56,0,0,1-.17-.42V27.68a3.37,3.37,0,0,1,.2-1.18,3.24,3.24,0,0,1,.45-.87,3.07,3.07,0,0,1,.74-.65,7.8,7.8,0,0,1,.77-.46l.84-.38a7.41,7.41,0,0,0,1.42-.78,1.08,1.08,0,0,0,.42-.89,1.55,1.55,0,0,0-.82-1.3,3.22,3.22,0,0,0-1.8-.54,3.15,3.15,0,0,0-1.79.49,8.48,8.48,0,0,0-1.51,1.51.56.56,0,0,1-.47.22.6.6,0,0,1-.36-.11l-2-1.49a.52.52,0,0,1-.23-.36.54.54,0,0,1,.09-.42A7.42,7.42,0,0,1,25.88,17a7.12,7.12,0,0,1,4.5,1.63A4.85,4.85,0,0,1,32.45,22.5ZM25.5,14.33a12.11,12.11,0,0,0-4.69.93A12.24,12.24,0,0,0,17,17.75a11.76,11.76,0,0,0-2.58,3.72,11.14,11.14,0,0,0,0,9.06A11.76,11.76,0,0,0,17,34.25a12.24,12.24,0,0,0,3.85,2.49,12.3,12.3,0,0,0,9.38,0A12.24,12.24,0,0,0,34,34.25a11.76,11.76,0,0,0,2.58-3.72,11.14,11.14,0,0,0,0-9.06A11.76,11.76,0,0,0,34,17.75a12.24,12.24,0,0,0-3.85-2.49A12.11,12.11,0,0,0,25.5,14.33ZM40,26a13.33,13.33,0,0,1-1.94,7,14.2,14.2,0,0,1-5.28,5.1,15,15,0,0,1-14.56,0A14.2,14.2,0,0,1,12.94,33a13.67,13.67,0,0,1,0-14.05,14.2,14.2,0,0,1,5.28-5.1,15,15,0,0,1,14.56,0A14.2,14.2,0,0,1,38.06,19,13.33,13.33,0,0,1,40,26Z" style="fill:#7d7f85"/>
</svg>
