<svg xmlns="http://www.w3.org/2000/svg" enable-background="new 0 0 52 52" viewBox="0 0 52 52">
    <path fill-rule="evenodd" d="M25.925 38.345c-8.07 0-14.972-9.134-14.972-12.472s6.109-12.218 14.783-12.218c8.561 0 15.311 8.833 15.311 12.079 0 3.246-7.052 12.611-15.123 12.611zm-.168-20.649c-6.138 0-10.462 5.776-10.462 8.296 0 2.521 4.884 8.402 10.596 8.402 5.711 0 10.702-6.056 10.702-8.506s-4.777-8.191-10.836-8.191zm.095 13.907c-3.248 0-5.881-2.619-5.881-5.85s2.633-5.85 5.881-5.85 5.881 2.619 5.881 5.85-2.633 5.85-5.881 5.85z" clip-rule="evenodd"/>
</svg>
