<svg xmlns="http://www.w3.org/2000/svg" enable-background="new 0 0 52 52" viewBox="0 0 52 52">
    <path d="M25.773 30.906l5.572 9.157 6.316-4.148c-.578-.71-1.362-1.628-2.353-2.751l-4.953-5.543c4.018-.657 7.554-1.327 10.608-2.012l-2.188-7.433c-2.091.795-4.375 1.753-6.852 2.875-1.816.849-3 1.383-3.55 1.601.743-5.337 1.115-9.005 1.115-11.004h-7.348c0 2.82.33 6.46.991 10.922-2.834-1.75-6.054-3.352-9.659-4.804l-2.435 7.227c.743.274 2.284.698 4.623 1.273 3.247.794 5.215 1.246 5.903 1.355-.221.22-.757.739-1.61 1.56-2.146 2.027-4.21 4.148-6.192 6.365l6.233 4.805c2.174-3.34 4.1-6.488 5.779-9.445z"/>
</svg>
