<svg xmlns="http://www.w3.org/2000/svg" enable-background="new 0 0 52 52" viewBox="0 0 52 52">
    <path d="M38.11 15.665c.148-.127.248-.269.301-.427.052-.158.079-.301.079-.427 0-.274-.122-.617-.365-1.028-.243-.411-.55-.812-.919-1.202-.37-.39-.777-.733-1.221-1.028-.444-.295-.856-.443-1.237-.443-.211 0-.396.037-.555.111-.159.074-.301.174-.428.301l-8.783 8.764-8.846-8.859c-.254-.274-.539-.411-.856-.411-.296 0-.655.127-1.078.38-.423.253-.83.565-1.221.933-.391.369-.729.77-1.015 1.202-.285.433-.428.849-.428 1.25 0 .169.042.338.127.506.084.169.179.316.285.443l8.783 8.796-8.878 8.828c-.254.253-.38.538-.38.854 0 .274.121.623.365 1.044.243.422.549.828.919 1.218.369.391.771.728 1.205 1.012.433.285.84.427 1.221.427.19 0 .37-.037.539-.111.169-.074.317-.174.444-.3l8.815-8.733 8.846 8.859c.127.106.259.195.396.269.137.074.29.111.46.111.275 0 .623-.127 1.046-.38.423-.253.829-.564 1.221-.933.391-.369.729-.775 1.015-1.218.285-.443.428-.854.428-1.234 0-.169-.032-.337-.095-.506-.063-.169-.17-.327-.317-.475l-8.783-8.733 8.91-8.859z"/>
</svg>
